<?xml version="1.0" encoding="utf-8" standalone="yes"?>
<!DOCTYPE svg PUBLIC "-//W3C//DTD SVG 1.1//EN" "http://www.w3.org/Graphics/SVG/1.1/DTD/svg11.dtd">
<svg width="62" height="62" viewBox="0 0 62 62" style="fill:none;stroke:none;fill-rule:evenodd;clip-rule:evenodd;stroke-linecap:round;stroke-linejoin:round;stroke-miterlimit:1.5;" version="1.1" xmlns="http://www.w3.org/2000/svg" xmlns:xlink="http://www.w3.org/1999/xlink"><g id="items" style="isolation: isolate"><g id="blend" style="mix-blend-mode:normal"><g id="g-root-circ_94m4hjwi7abv-fill" data-item-order="1000000000" transform="translate(3, 3)"></g><g id="g-root-circ_94m4hjwi7abv-stroke" data-item-order="1000000000" transform="translate(3, 3)"><g id="circ_94m4hjwi7abv-stroke" fill="none" stroke-linecap="round" stroke-linejoin="round" stroke-miterlimit="4" stroke="#ffffff" stroke-width="2"><g><path d="M 34.816002 28.685499C 34.815727 30.468464 36.261032 31.913988 38.043999 31.913988C 39.826965 31.913988 41.27227 30.468464 41.271999 28.685499C 41.27227 26.902533 39.826965 25.457012 38.043999 25.457012C 36.261032 25.457012 34.815727 26.902533 34.815998 28.685499M 43.316502 35.941002C 41.118847 33.09943 37.063068 32.513966 34.151501 34.618M 14.728 28.685499C 14.72773 30.468464 16.173035 31.913988 17.955999 31.913988C 19.738966 31.913988 21.184269 30.468464 21.184 28.685499C 21.184269 26.902533 19.738966 25.457012 17.955999 25.457012C 16.173035 25.457012 14.72773 26.902533 14.728 28.685499M 12.682 35.939499C 14.880713 33.097778 18.936893 32.511784 21.85 34.614998M 35.5 38.9095C 35.5 34.767365 32.142136 31.4095 28 31.4095C 23.857864 31.4095 20.5 34.767365 20.5 38.9095M 23.491001 24.932499C 23.491001 27.380503 25.475498 29.365 27.9235 29.365C 30.371502 29.365 32.355999 27.380503 32.355999 24.932499C 32.355999 22.484499 30.371502 20.5 27.9235 20.5C 25.475498 20.5 23.491001 22.484499 23.491001 24.932499M 10.75 28C 10.75 37.526913 18.473087 45.25 28 45.25C 37.526913 45.25 45.25 37.526913 45.25 28C 45.25 18.473087 37.526913 10.75 28 10.75C 18.473087 10.75 10.75 18.473087 10.75 28"></path></g></g></g></g></g></svg>