<?xml version="1.0" encoding="utf-8" standalone="yes"?>
<!DOCTYPE svg PUBLIC "-//W3C//DTD SVG 1.1//EN" "http://www.w3.org/Graphics/SVG/1.1/DTD/svg11.dtd">
<svg width="58" height="58" viewBox="0 0 58 58" style="fill:none;stroke:none;fill-rule:evenodd;clip-rule:evenodd;stroke-linecap:round;stroke-linejoin:round;stroke-miterlimit:1.5;" version="1.1" xmlns="http://www.w3.org/2000/svg" xmlns:xlink="http://www.w3.org/1999/xlink"><g id="items" style="isolation: isolate"><g id="blend" style="mix-blend-mode:normal"><g id="g-root-2_zp1fc913fszcz-fill" data-item-order="1000000000" transform="translate(3, 3)"></g><g id="g-root-2_zp1fc913fszcz-stroke" data-item-order="1000000000" transform="translate(3, 3)"><g id="2_zp1fc913fszcz-stroke" fill="none" stroke-linecap="round" stroke-linejoin="round" stroke-miterlimit="4" stroke="#4682e3" stroke-width="2"><g><path d="M 34.320004 13.52L 17.68 13.52C 16.901972 13.541365 16.180567 13.931772 15.737144 14.571428L 11.577143 20.331429C 10.941596 21.229532 10.998118 22.444765 11.714286 23.280001L 24.194286 37.657146C 24.62726 38.215038 25.293804 38.54147 26 38.54147C 26.706198 38.54147 27.37274 38.215038 27.805716 37.657146L 40.285717 23.280001C 41.001884 22.444765 41.058403 21.229532 40.422855 20.331429L 36.262859 14.571428C 35.819439 13.931772 35.09803 13.541365 34.320004 13.52ZM 24.81143 13.497143L 19.234285 22.137144L 26 38.48M 27.257145 13.497143L 32.811428 22.137144L 26 38.48M 11.188571 22.137144L 40.811428 22.137144"></path></g></g></g></g></g></svg>