<?xml version="1.0" encoding="utf-8" standalone="yes"?>
<!DOCTYPE svg PUBLIC "-//W3C//DTD SVG 1.1//EN" "http://www.w3.org/Graphics/SVG/1.1/DTD/svg11.dtd">
<svg width="62" height="62" viewBox="0 0 62 62" style="fill:none;stroke:none;fill-rule:evenodd;clip-rule:evenodd;stroke-linecap:round;stroke-linejoin:round;stroke-miterlimit:1.5;" version="1.1" xmlns="http://www.w3.org/2000/svg" xmlns:xlink="http://www.w3.org/1999/xlink"><g id="items" style="isolation: isolate"><g id="blend" style="mix-blend-mode:normal"><g id="g-root-tria_1uoneafx228zl-fill" data-item-order="1000000000" transform="translate(3, 3)"></g><g id="g-root-tria_1uoneafx228zl-stroke" data-item-order="1000000000" transform="translate(3, 3)"><g id="tria_1uoneafx228zl-stroke" fill="none" stroke-linecap="round" stroke-linejoin="round" stroke-miterlimit="4" stroke="#93c131" stroke-width="2"><g><path d="M 43.829498 43.871498C 44.031067 44.151608 44.044121 44.525536 43.862583 44.819016C 43.681046 45.112499 43.340637 45.26778 43 45.212502L 13 45.212502C 12.659365 45.26778 12.318957 45.112499 12.137419 44.819016C 11.955879 44.525536 11.968935 44.151608 12.1705 43.871502L 27.3295 13.555C 27.6985 12.817 28.3015 12.817 28.6705 13.555ZM 28 35.468498L 28 24.9685M 27.9865 38.468498C 27.887558 38.470444 27.793545 38.512051 27.725571 38.583969C 27.657597 38.655895 27.621361 38.752106 27.625 38.851002C 27.633036 39.055786 27.801054 39.217854 28.006001 39.218498L 28.0135 39.218498C 28.112442 39.216553 28.206457 39.17495 28.274431 39.103027C 28.342403 39.031105 28.378639 38.934895 28.375 38.836002C 28.367088 38.633499 28.202614 38.472321 28 38.468498L 27.9925 38.468498"></path></g></g></g></g></g></svg>