<?xml version="1.0" encoding="utf-8" standalone="yes"?>
<!DOCTYPE svg PUBLIC "-//W3C//DTD SVG 1.1//EN" "http://www.w3.org/Graphics/SVG/1.1/DTD/svg11.dtd">
<svg width="62" height="62" viewBox="0 0 62 62" style="fill:none;stroke:none;fill-rule:evenodd;clip-rule:evenodd;stroke-linecap:round;stroke-linejoin:round;stroke-miterlimit:1.5;" version="1.1" xmlns="http://www.w3.org/2000/svg" xmlns:xlink="http://www.w3.org/1999/xlink"><g id="items" style="isolation: isolate"><g id="blend" style="mix-blend-mode:normal"><g id="g-root-focu_1d3mx47w8dc07-fill" data-item-order="1000000000" transform="translate(3, 3)"></g><g id="g-root-focu_1d3mx47w8dc07-stroke" data-item-order="1000000000" transform="translate(3, 3)"><g id="focu_1d3mx47w8dc07-stroke" fill="none" stroke-linecap="round" stroke-linejoin="round" stroke-miterlimit="4" stroke="#ffffff" stroke-width="2"><g><path d="M 21.571428 24.142857C 21.571428 27.69326 24.449598 30.571428 28 30.571428C 31.550402 30.571428 34.42857 27.69326 34.42857 24.142857C 34.42857 20.592455 31.550402 17.714285 28 17.714285C 24.449598 17.714285 21.571428 20.592455 21.571428 24.142857M 36.511429 37.642857C 31.649593 33.348637 24.350405 33.348637 19.488571 37.642857M 44.714287 37L 44.714287 42.142857C 44.714287 43.563019 43.563019 44.714287 42.142857 44.714287L 37 44.714287M 37 11.285714L 42.142857 11.285714C 43.563019 11.285714 44.714287 12.436982 44.714287 13.857142L 44.714287 19M 11.285714 19L 11.285714 13.857142C 11.285714 12.436982 12.436982 11.285714 13.857142 11.285714L 19 11.285714M 19 44.714287L 13.857142 44.714287C 12.436982 44.714287 11.285714 43.563019 11.285714 42.142857L 11.285714 37"></path></g></g></g></g></g></svg>