<?xml version="1.0" encoding="utf-8" standalone="yes"?>
<!DOCTYPE svg PUBLIC "-//W3C//DTD SVG 1.1//EN" "http://www.w3.org/Graphics/SVG/1.1/DTD/svg11.dtd">
<svg width="58" height="58" viewBox="0 0 58 58" style="fill:none;stroke:none;fill-rule:evenodd;clip-rule:evenodd;stroke-linecap:round;stroke-linejoin:round;stroke-miterlimit:1.5;" version="1.1" xmlns="http://www.w3.org/2000/svg" xmlns:xlink="http://www.w3.org/1999/xlink"><g id="items" style="isolation: isolate"><g id="blend" style="mix-blend-mode:normal"><g id="g-root-2_magg8q13pprm2-fill" data-item-order="1000000000" transform="translate(3, 3)"></g><g id="g-root-2_magg8q13pprm2-stroke" data-item-order="1000000000" transform="translate(3, 3)"><g id="2_magg8q13pprm2-stroke" fill="none" stroke-linecap="round" stroke-linejoin="round" stroke-miterlimit="4" stroke="#4682e3" stroke-width="2"><g><path d="M 10.666667 21.162666L 13.333333 21.162666C 14.069713 21.162666 14.666667 21.759621 14.666667 22.496L 14.666667 38.496002C 14.666667 39.23238 14.069713 39.829334 13.333333 39.829334L 10.666667 39.829334M 14.666667 35.829334C 24.452 40.797333 23.974667 40.14267 32.353333 40.14267C 35.862667 40.14267 37.630669 37.856003 38.662666 34.505333L 38.662666 34.484001L 41.205334 25.950668L 41.205334 25.934668C 41.448982 25.129128 41.298073 24.25584 40.798222 23.578781C 40.29837 22.901724 39.50824 22.500355 38.666668 22.496L 32.133335 22.496C 31.306118 22.49605 30.525719 22.1122 30.020828 21.456936C 29.515936 20.801674 29.343727 19.949202 29.554668 19.149334L 30.730667 14.690666C 31.012037 13.620598 30.485952 12.502738 29.482059 12.037535C 28.478167 11.572332 27.285198 11.893586 26.650669 12.8L 20.133333 22.033333C 19.633749 22.741415 18.821249 23.162582 17.954666 23.162666L 14.666667 23.162666"></path></g></g></g></g></g></svg>