<?xml version="1.0" encoding="utf-8" standalone="yes"?>
<!DOCTYPE svg PUBLIC "-//W3C//DTD SVG 1.1//EN" "http://www.w3.org/Graphics/SVG/1.1/DTD/svg11.dtd">
<svg width="58" height="58" viewBox="0 0 58 58" style="fill:none;stroke:none;fill-rule:evenodd;clip-rule:evenodd;stroke-linecap:round;stroke-linejoin:round;stroke-miterlimit:1.5;" version="1.1" xmlns="http://www.w3.org/2000/svg" xmlns:xlink="http://www.w3.org/1999/xlink"><g id="items" style="isolation: isolate"><g id="blend" style="mix-blend-mode:normal"><g id="g-root-gift_qu1ut612w7shz-fill" data-item-order="1000000000" transform="translate(3, 3)"></g><g id="g-root-gift_qu1ut612w7shz-stroke" data-item-order="1000000000" transform="translate(3, 3)"><g id="gift_qu1ut612w7shz-stroke" fill="none" stroke-linecap="round" stroke-linejoin="round" stroke-miterlimit="4" stroke="#4682e3" stroke-width="2"><g><path d="M 10.666667 41.333336L 10.666667 28M 10.666667 30.666668L 20 30.666668C 22.209141 30.666668 24 32.457527 24 34.666668L 32 34.666668C 34.209141 34.666668 36 36.457527 36 38.666668L 10.666667 38.666668ZM 24 34.666668L 20 34.666668M 32 21.333334L 40 21.333334C 40 21.333334 41.333336 21.333334 41.333336 22.666668L 41.333336 29.333334C 41.333336 29.333334 41.333336 30.666668 40 30.666668L 32 30.666668C 32 30.666668 30.666668 30.666668 30.666668 29.333334L 30.666668 22.666668C 30.666668 22.666668 30.666668 21.333334 32 21.333334M 36 21.333334L 36 30.666668M 30.666668 26.666668L 41.333336 26.666668M 34.666668 16L 25.200001 16C 24.518059 16.000322 23.94627 16.51516 23.874668 17.193333L 22.821335 27.193335C 22.781504 27.570513 22.904192 27.946806 23.158688 28.228024C 23.413181 28.509239 23.775396 28.668764 24.154667 28.666668L 30.666668 28.666668M 32 16L 32 13.333333C 32 11.860574 30.806093 10.666667 29.333334 10.666667L 29.333334 10.666667C 27.860575 10.666667 26.666668 11.860574 26.666668 13.333333L 26.666668 16M 36 21.333334L 33.333336 18.666666M 38.666668 18.666666L 36 21.333334"></path></g></g></g></g></g></svg>