<?xml version="1.0" encoding="utf-8" standalone="yes"?>
<!DOCTYPE svg PUBLIC "-//W3C//DTD SVG 1.1//EN" "http://www.w3.org/Graphics/SVG/1.1/DTD/svg11.dtd">
<svg width="62" height="62" viewBox="0 0 62 62" style="fill:none;stroke:none;fill-rule:evenodd;clip-rule:evenodd;stroke-linecap:round;stroke-linejoin:round;stroke-miterlimit:1.5;" version="1.1" xmlns="http://www.w3.org/2000/svg" xmlns:xlink="http://www.w3.org/1999/xlink"><g id="items" style="isolation: isolate"><g id="blend" style="mix-blend-mode:normal"><g id="g-root-1_1lynmm2135p4w6-fill" data-item-order="1000000000" transform="translate(3, 3)"></g><g id="g-root-1_1lynmm2135p4w6-stroke" data-item-order="1000000000" transform="translate(3, 3)"><g id="1_1lynmm2135p4w6-stroke" fill="none" stroke-linecap="round" stroke-linejoin="round" stroke-miterlimit="4" stroke="#4682e3" stroke-width="2"><g><path d="M 25.428572 35.919998L 25.428572 41.062855C 25.414709 41.464626 25.084866 41.783092 24.682856 41.782856L 19.282856 41.782856C 18.394968 41.633282 17.591198 41.167458 17.02 40.471428M 17.02 40.497143C 17.02 40.497143 14.217143 38.054283 20.722857 31.548571L 23.628572 31.548571L 19.282856 24.374287L 11.285714 24.374287L 13.471429 27.177143C 13.471429 27.177143 12.005714 27.434286 12.005714 29.465715C 12.774501 33.489796 14.49366 37.27195 17.02 40.497143ZM 36.614285 26.379999L 40.419998 23.808571C 40.591991 23.732645 40.788006 23.732645 40.959995 23.808571C 41.16119 23.832102 41.340866 23.945581 41.44857 24.117142L 44.405716 28.539999C 44.763897 29.260813 44.763897 30.107758 44.405716 30.828571M 44.508572 30.571428C 44.508572 30.571428 43.685715 33.914288 35.174286 33.142857L 35.174286 30.905714L 30.185715 37.437141L 34.917141 44.714287L 35.174286 41.294285C 35.174286 41.294285 36.125713 42.451427 37.745712 41.294285C 40.462616 38.033592 42.736595 34.428082 44.508572 30.571428ZM 21.185715 21.005714L 17.714285 19.411428C 17.359386 19.228056 17.203184 18.804081 17.354286 18.434286L 20.285713 12.571428C 20.682766 11.867694 21.38751 11.391516 22.18857 11.285714M 22.18857 11.285714C 22.18857 11.285714 25.351427 11.285714 29.362858 19L 27.279999 21.571428L 35.919998 21.571428L 38.98 13.497143L 35.380001 14.602857C 35.273399 13.466255 34.552921 12.479302 33.502857 12.031428C 31.730474 11.444677 29.864618 11.191828 28 11.285714Z"></path></g></g></g></g></g></svg>