<?xml version="1.0" encoding="utf-8" standalone="yes"?>
<!DOCTYPE svg PUBLIC "-//W3C//DTD SVG 1.1//EN" "http://www.w3.org/Graphics/SVG/1.1/DTD/svg11.dtd">
<svg width="58" height="58" viewBox="0 0 58 58" style="fill:none;stroke:none;fill-rule:evenodd;clip-rule:evenodd;stroke-linecap:round;stroke-linejoin:round;stroke-miterlimit:1.5;" version="1.1" xmlns="http://www.w3.org/2000/svg" xmlns:xlink="http://www.w3.org/1999/xlink"><g id="items" style="isolation: isolate"><g id="blend" style="mix-blend-mode:normal"><g id="g-root-incr_hwjfay12lzrig-fill" data-item-order="1000000000" transform="translate(3, 3)"></g><g id="g-root-incr_hwjfay12lzrig-stroke" data-item-order="1000000000" transform="translate(3, 3)"><g id="incr_hwjfay12lzrig-stroke" fill="none" stroke-linecap="round" stroke-linejoin="round" stroke-miterlimit="4" stroke="#4682e3" stroke-width="2"><g><path d="M 10.672 41L 41.338669 41M 16 41L 16 37.666668C 16 37.298477 15.701524 37 15.333334 37L 12.666667 37C 12.298477 37 12 37.298477 12 37.666668L 12 41M 24 41L 24 32.333336C 24 31.965145 23.701523 31.666668 23.333334 31.666668L 20.666668 31.666668C 20.298477 31.666668 20 31.965145 20 32.333336L 20 41M 32 41L 32 27C 32 26.631811 31.701523 26.333334 31.333334 26.333334L 28.666668 26.333334C 28.298477 26.333334 28 26.631811 28 27L 28 41M 40 41L 40 21.666668C 40 21.298477 39.701523 21 39.333336 21L 36.666668 21C 36.298477 21 36 21.298477 36 21.666668L 36 41M 14.005333 27.666668L 38.005333 11.666667M 37.338669 17L 38.005333 11.666667L 32.672001 11"></path></g></g></g></g></g></svg>