<?xml version="1.0" encoding="utf-8" standalone="yes"?>
<!DOCTYPE svg PUBLIC "-//W3C//DTD SVG 1.1//EN" "http://www.w3.org/Graphics/SVG/1.1/DTD/svg11.dtd">
<svg width="62" height="62" viewBox="0 0 62 62" style="fill:none;stroke:none;fill-rule:evenodd;clip-rule:evenodd;stroke-linecap:round;stroke-linejoin:round;stroke-miterlimit:1.5;" version="1.1" xmlns="http://www.w3.org/2000/svg" xmlns:xlink="http://www.w3.org/1999/xlink"><g id="items" style="isolation: isolate"><g id="blend" style="mix-blend-mode:normal"><g id="g-root-1_qtelf9x2aosr-fill" data-item-order="1000000000" transform="translate(3, 3)"></g><g id="g-root-1_qtelf9x2aosr-stroke" data-item-order="1000000000" transform="translate(3, 3)"><g id="1_qtelf9x2aosr-stroke" fill="none" stroke-linecap="round" stroke-linejoin="round" stroke-miterlimit="4" stroke="#93c131" stroke-width="2"><g><path d="M 28 43L 28 45.25M 32.5 35.927498L 32.5 40C 32.5 42.139 30.700001 43 28 43C 25.299999 43 23.5 42.139 23.5 40L 23.5 35.927498M 28 35.795502L 28 29.5L 25 26.5M 31.75 36.25C 35.428619 34.791649 37.81868 31.206553 37.75 27.25C 37.654739 21.905178 33.344822 17.595259 28 17.5C 22.655178 17.595259 18.345259 21.905178 18.25 27.25C 18.181318 31.206553 20.571381 34.791649 24.25 36.25ZM 23.5 39.25L 32.5 39.25M 28 10.75L 28 13.75M 11.5 25.75L 14.9365 25.75M 15.25 14.5L 18.25 17.5M 44.5 25.75L 41.063499 25.75M 40.75 14.5L 37.75 17.5M 28 29.5L 31 26.5"></path></g></g></g></g></g></svg>