<?xml version="1.0" encoding="utf-8" standalone="yes"?>
<!DOCTYPE svg PUBLIC "-//W3C//DTD SVG 1.1//EN" "http://www.w3.org/Graphics/SVG/1.1/DTD/svg11.dtd">
<svg width="62" height="62" viewBox="0 0 62 62" style="fill:none;stroke:none;fill-rule:evenodd;clip-rule:evenodd;stroke-linecap:round;stroke-linejoin:round;stroke-miterlimit:1.5;" version="1.1" xmlns="http://www.w3.org/2000/svg" xmlns:xlink="http://www.w3.org/1999/xlink"><g id="items" style="isolation: isolate"><g id="blend" style="mix-blend-mode:normal"><g id="g-root-incr_qrjygnxmgx6w-fill" data-item-order="1000000000" transform="translate(3, 3)"></g><g id="g-root-incr_qrjygnxmgx6w-stroke" data-item-order="1000000000" transform="translate(3, 3)"><g id="incr_qrjygnxmgx6w-stroke" fill="none" stroke-linecap="round" stroke-linejoin="round" stroke-miterlimit="4" stroke="#ffffff" stroke-width="2"><g><path d="M 10.756 44.875L 45.256001 44.875M 16.75 44.875L 16.75 41.125C 16.75 40.710785 16.414213 40.375 16 40.375L 13 40.375C 12.585787 40.375 12.25 40.710785 12.25 41.125L 12.25 44.875M 25.75 44.875L 25.75 35.125C 25.75 34.710785 25.414213 34.375 25 34.375L 22 34.375C 21.585787 34.375 21.25 34.710785 21.25 35.125L 21.25 44.875M 34.75 44.875L 34.75 29.125C 34.75 28.710787 34.414215 28.375 34 28.375L 31 28.375C 30.585787 28.375 30.25 28.710787 30.25 29.125L 30.25 44.875M 43.75 44.875L 43.75 23.125C 43.75 22.710787 43.414215 22.375 43 22.375L 40 22.375C 39.585785 22.375 39.25 22.710787 39.25 23.125L 39.25 44.875M 14.506 29.875L 41.506001 11.875M 40.756001 17.875L 41.506001 11.875L 35.506001 11.125"></path></g></g></g></g></g></svg>