<?xml version="1.0" encoding="utf-8" standalone="yes"?>
<!DOCTYPE svg PUBLIC "-//W3C//DTD SVG 1.1//EN" "http://www.w3.org/Graphics/SVG/1.1/DTD/svg11.dtd">
<svg width="62" height="63" viewBox="0 0 62 63" style="fill:none;stroke:none;fill-rule:evenodd;clip-rule:evenodd;stroke-linecap:round;stroke-linejoin:round;stroke-miterlimit:1.5;" version="1.1" xmlns="http://www.w3.org/2000/svg" xmlns:xlink="http://www.w3.org/1999/xlink"><g id="items" style="isolation: isolate"><g id="blend" style="mix-blend-mode:normal"><g id="g-root-boar_7qfop11hx7nm-fill" data-item-order="1000000000" transform="translate(3, 3)"></g><g id="g-root-boar_7qfop11hx7nm-stroke" data-item-order="1000000000" transform="translate(3, 3)"><g id="boar_7qfop11hx7nm-stroke" fill="none" stroke-linecap="round" stroke-linejoin="round" stroke-miterlimit="4" stroke="#4682e3" stroke-width="2"><g><path d="M 12.3175 11.1415L 25.059999 11.1415C 25.925705 11.1415 26.627499 11.843293 26.627499 12.709L 26.627501 18.9835L 26.627501 18.9835L 10.75 18.9835L 10.75 18.9835L 10.75 12.7105C 10.749171 11.844208 11.451207 11.1415 12.3175 11.1415ZM 10.75 23.791L 26.627501 23.791L 26.627501 37.904503L 10.75 37.904503ZM 21.335501 15.259C 21.335455 15.583775 21.598724 15.847081 21.9235 15.847081C 22.248276 15.847081 22.511543 15.583775 22.511499 15.259C 22.511543 14.934225 22.248276 14.670918 21.9235 14.670918C 21.598724 14.670918 21.335455 14.934225 21.335499 15.259M 14.866 28.494999L 22.708 28.494999M 19.571501 33.198997L 22.708 33.198997M 33.488503 11.1415L 43.688499 11.1415C 44.552444 11.144807 45.250832 11.846546 45.249996 12.7105L 45.25 18.9835L 45.25 18.9835L 31.921001 18.9835L 31.921001 18.9835L 31.921001 12.7105C 31.92017 11.844208 32.622208 11.1415 33.488499 11.1415ZM 31.921001 23.791L 45.25 23.791L 45.25 33.2005L 31.921001 33.2005ZM 39.958 15.259C 39.957954 15.583775 40.221222 15.847081 40.545998 15.847081C 40.870773 15.847081 41.134045 15.583775 41.133999 15.259C 41.134045 14.934225 40.870773 14.670918 40.545998 14.670918C 40.221222 14.670918 39.957954 14.934225 39.958 15.259M 35.8405 28.494999L 41.328999 28.494999M 31.921001 37.904503L 45.25 37.904503L 45.25 44.858501L 31.921001 44.858501ZM 14.8225 32.424999C 14.8225 32.735661 15.07434 32.987503 15.385 32.987503C 15.695661 32.987503 15.9475 32.735661 15.9475 32.425003C 15.9475 32.114342 15.695661 31.862501 15.385 31.862501C 15.07434 31.862501 14.8225 32.114342 14.8225 32.425003"></path></g></g></g></g></g></svg>