<?xml version="1.0" encoding="utf-8" standalone="yes"?>
<!DOCTYPE svg PUBLIC "-//W3C//DTD SVG 1.1//EN" "http://www.w3.org/Graphics/SVG/1.1/DTD/svg11.dtd">
<svg width="62" height="62" viewBox="0 0 62 62" style="fill:none;stroke:none;fill-rule:evenodd;clip-rule:evenodd;stroke-linecap:round;stroke-linejoin:round;stroke-miterlimit:1.5;" version="1.1" xmlns="http://www.w3.org/2000/svg" xmlns:xlink="http://www.w3.org/1999/xlink"><g id="items" style="isolation: isolate"><g id="blend" style="mix-blend-mode:normal"><g id="g-root-hear_1lw5qeat6dkwb-fill" data-item-order="1000000000" transform="translate(3, 3)"></g><g id="g-root-hear_1lw5qeat6dkwb-stroke" data-item-order="1000000000" transform="translate(3, 3)"><g id="hear_1lw5qeat6dkwb-stroke" fill="none" stroke-linecap="round" stroke-linejoin="round" stroke-miterlimit="4" stroke="#484848" stroke-width="2"><g><path d="M 28.008999 28.489L 19.370501 19.476999C 17.813812 17.92153 17.427664 15.544209 18.412001 13.576L 18.411999 13.576C 19.147005 12.106699 20.543568 11.080343 22.165314 10.817631C 23.78706 10.554917 25.436222 11.087885 26.5975 12.25L 28.008999 13.66L 29.4205 12.25C 30.581989 11.087994 32.231316 10.555263 33.853088 10.818276C 35.474861 11.08129 36.871284 12.107973 37.606003 13.5775L 37.605999 13.5775C 38.589752 15.545544 38.204311 17.92223 36.649002 19.4785ZM 15.25 45.25L 12.229 41.474499C 11.271277 40.277267 10.749664 38.789665 10.75 37.2565L 10.75 29.5C 10.75 28.25736 11.75736 27.25 13 27.25L 13 27.25C 14.242641 27.25 15.25 28.25736 15.25 29.5L 15.25 35.3125M 22.75 45.046001L 22.75 40.546001C 22.751228 39.211128 22.356022 37.905964 21.6145 36.796001C 18.782499 33.849998 17.899 32.420498 16.186001 33.563499L 16.186001 33.563499C 15.304562 34.150799 14.998449 35.302582 15.472 36.25L 17.5 39.625M 40.75 45.25L 43.771 41.474499C 44.728722 40.277267 45.250336 38.789665 45.25 37.2565L 45.25 29.5C 45.25 28.25736 44.242641 27.25 43 27.25L 43 27.25C 41.757362 27.25 40.75 28.25736 40.75 29.5L 40.75 35.3125M 33.25 45.046001L 33.25 40.546001C 33.248772 39.211128 33.643978 37.905964 34.385498 36.796001C 37.217499 33.844002 38.100998 32.4175 39.813999 33.560501L 39.813999 33.560501C 40.695438 34.1478 41.001549 35.29958 40.528 36.246998L 38.5 39.625"></path></g></g></g></g></g></svg>