<?xml version="1.0" encoding="utf-8" standalone="yes"?>
<!DOCTYPE svg PUBLIC "-//W3C//DTD SVG 1.1//EN" "http://www.w3.org/Graphics/SVG/1.1/DTD/svg11.dtd">
<svg width="62" height="62" viewBox="0 0 62 62" style="fill:none;stroke:none;fill-rule:evenodd;clip-rule:evenodd;stroke-linecap:round;stroke-linejoin:round;stroke-miterlimit:1.5;" version="1.1" xmlns="http://www.w3.org/2000/svg" xmlns:xlink="http://www.w3.org/1999/xlink"><g id="items" style="isolation: isolate"><g id="blend" style="mix-blend-mode:normal"><g id="g-root-draw_zqa70mws198u-fill" data-item-order="1000000000" transform="translate(3, 3)"></g><g id="g-root-draw_zqa70mws198u-stroke" data-item-order="1000000000" transform="translate(3, 3)"><g id="draw_zqa70mws198u-stroke" fill="none" stroke-linecap="round" stroke-linejoin="round" stroke-miterlimit="4" stroke="#93c131" stroke-width="2"><g><path d="M 16 14.125C 16.207108 14.125 16.375 14.292893 16.375 14.5C 16.375 14.707107 16.207108 14.875 16 14.875C 15.792893 14.875 15.625 14.707107 15.625 14.5C 15.625 14.292893 15.792893 14.125 16 14.125M 20.5 14.125C 20.707108 14.125 20.875 14.292893 20.875 14.5C 20.875 14.707107 20.707108 14.875 20.5 14.875C 20.292892 14.875 20.125 14.707107 20.125 14.5C 20.125 14.292893 20.292892 14.125 20.5 14.125M 25 14.125C 25.207108 14.125 25.375 14.292893 25.375 14.5C 25.375 14.707107 25.207108 14.875 25 14.875C 24.792892 14.875 24.625 14.707107 24.625 14.5C 24.625 14.292893 24.792892 14.125 25 14.125M 13.75 10.75L 42.25 10.75C 42.25 10.75 45.25 10.75 45.25 13.75L 45.25 42.25C 45.25 42.25 45.25 45.25 42.25 45.25L 13.75 45.25C 13.75 45.25 10.75 45.25 10.75 42.25L 10.75 13.75C 10.75 13.75 10.75 10.75 13.75 10.75M 10.75 18.25L 45.25 18.25M 16 22.75L 19 22.75C 19 22.75 19.75 22.75 19.75 23.5L 19.75 40C 19.75 40 19.75 40.75 19 40.75L 16 40.75C 16 40.75 15.25 40.75 15.25 40L 15.25 23.5C 15.25 23.5 15.25 22.75 16 22.75M 15.25 27.25L 19.75 27.25M 15.25 31.75L 19.75 31.75M 15.25 36.25L 19.75 36.25M 31.75 34C 31.75798 33.589138 32.089138 33.25798 32.5 33.25L 34 33.25L 35.785 34.75L 40 34.75C 40.410862 34.75798 40.74202 35.089138 40.75 35.5L 40.75 40C 40.74202 40.410862 40.410862 40.74202 40 40.75L 32.5 40.75C 32.089138 40.74202 31.75798 40.410862 31.75 40ZM 26.349998 31.105L 37.195 24.969999M 38.5 22.75C 39.328426 22.75 40 23.421572 40 24.25C 40 25.078428 39.328426 25.75 38.5 25.75C 37.671574 25.75 37 25.078428 37 24.25C 37 23.421572 37.671574 22.75 38.5 22.75ZM 26.5 31.75C 26.5 32.578426 25.828428 33.25 25 33.25C 24.171572 33.25 23.5 32.578426 23.5 31.75C 23.5 30.921572 24.171572 30.25 25 30.25C 25.828428 30.25 26.5 30.921572 26.5 31.75Z"></path></g></g></g></g></g></svg>