<?xml version="1.0" encoding="utf-8" standalone="yes"?>
<!DOCTYPE svg PUBLIC "-//W3C//DTD SVG 1.1//EN" "http://www.w3.org/Graphics/SVG/1.1/DTD/svg11.dtd">
<svg width="62" height="62" viewBox="0 0 62 62" style="fill:none;stroke:none;fill-rule:evenodd;clip-rule:evenodd;stroke-linecap:round;stroke-linejoin:round;stroke-miterlimit:1.5;" version="1.1" xmlns="http://www.w3.org/2000/svg" xmlns:xlink="http://www.w3.org/1999/xlink"><g id="items" style="isolation: isolate"><g id="blend" style="mix-blend-mode:normal"><g id="g-root-draw_4lph6vvehc0b-fill" data-item-order="1000000000" transform="translate(3, 3)"></g><g id="g-root-draw_4lph6vvehc0b-stroke" data-item-order="1000000000" transform="translate(3, 3)"><g id="draw_4lph6vvehc0b-stroke" fill="none" stroke-linecap="round" stroke-linejoin="round" stroke-miterlimit="4" stroke="#ffffff" stroke-width="2"><g><path d="M 36.16 19L 36.16 12.25C 36.16 11.421573 35.488426 10.75 34.66 10.75L 13.66 10.75C 12.831573 10.75 12.16 11.421573 12.16 12.25L 12.16 43.75C 12.16 44.578426 12.831573 45.25 13.66 45.25L 33.91 45.25C 34.738426 45.25 35.41 44.578426 35.41 43.75M 10.66 18.25L 14.41 18.25M 10.66 24.25L 14.41 24.25M 10.66 30.25L 14.41 30.25M 10.66 36.25L 14.41 36.25M 10.66 42.25L 14.41 42.25M 21.369999 24.25C 19.975328 23.855703 18.795403 22.921648 18.091541 21.654699C 17.387682 20.387749 17.217972 18.892464 17.619999 17.5C 17.937546 16.385628 18.685148 15.443242 19.698063 14.880512C 20.710978 14.317781 21.906075 14.180889 23.02 14.5C 24.869936 15.037408 25.941034 16.965385 25.42 18.82C 24.984577 20.277775 23.471279 21.127344 22 20.74C 20.82877 20.385735 20.160164 19.155499 20.5 17.98M 38.814999 23.83C 36.54213 21.835558 33.360268 21.244375 30.522686 22.289307C 27.685104 23.334236 25.646563 25.847816 25.210001 28.84L 25.09 29.59C 24.911549 30.832813 25.774561 31.984913 27.017418 32.163055C 28.260277 32.341198 29.412163 31.477901 29.59 30.234999L 29.710001 29.485001C 29.885277 28.254429 30.661249 27.191685 31.780001 26.650002M 37.375 30.52L 38.334999 31.825001C 38.824936 32.477238 38.872078 33.360905 38.454315 34.061562C 38.036549 34.762222 37.236744 35.1409 36.43 35.02L 36.43 35.02L 31.24 34.27C 29.997532 34.092224 28.846138 34.955154 28.668056 36.197578C 28.489975 37.440002 29.352619 38.59161 30.594999 38.769997L 35.785 39.52C 37.720001 42.699997 40.945 42.415001 43.989998 41.349998M 41.77 27.235001L 45.34 32.035M 29.349998 30.880001L 41.5 21.775C 42.498257 21.033558 43.908562 21.241745 44.650002 22.240002C 45.391445 23.238255 45.183258 24.64856 44.185001 25.390001L 32.095001 34.389999M 28.014999 37.494999L 21.865 39.279999L 25.33 33.880001L 27.67 32.139999M 39.925003 22.99L 42.625 26.59M 25.33 33.880001L 28.014999 37.494999M 28.719999 36.970001L 28.014999 37.494999"></path></g></g></g></g></g></svg>