<?xml version="1.0" encoding="utf-8" standalone="yes"?>
<!DOCTYPE svg PUBLIC "-//W3C//DTD SVG 1.1//EN" "http://www.w3.org/Graphics/SVG/1.1/DTD/svg11.dtd">
<svg width="62" height="62" viewBox="0 0 62 62" style="fill:none;stroke:none;fill-rule:evenodd;clip-rule:evenodd;stroke-linecap:round;stroke-linejoin:round;stroke-miterlimit:1.5;" version="1.1" xmlns="http://www.w3.org/2000/svg" xmlns:xlink="http://www.w3.org/1999/xlink"><g id="items" style="isolation: isolate"><g id="blend" style="mix-blend-mode:normal"><g id="g-root-4_hvwc3rxm7216-fill" data-item-order="1000000000" transform="translate(3, 3)"></g><g id="g-root-4_hvwc3rxm7216-stroke" data-item-order="1000000000" transform="translate(3, 3)"><g id="4_hvwc3rxm7216-stroke" fill="none" stroke-linecap="round" stroke-linejoin="round" stroke-miterlimit="4" stroke="#ffffff" stroke-width="2"><g><path d="M 41.657501 13.555C 37.351204 11.675348 32.698547 10.719778 28 10.75C 23.303976 10.720828 18.653984 11.676375 14.35 13.555C 13.523885 13.929939 12.995188 14.755294 13 15.662499L 13 27.118C 12.999575 34.74485 17.696827 41.584103 24.8155 44.321503L 26.4265 44.942501C 27.436737 45.351158 28.566261 45.351158 29.5765 44.942501L 31.1875 44.321503C 38.304993 41.58313 43.0009 34.744099 43 27.118L 43 15.6625C 43.006145 14.757045 42.480682 13.932162 41.657501 13.555ZM 37.348 31.909L 21.541 16.101999M 17.5 19.9375L 33.952 36.3895M 37.565502 17.200001C 34.546471 15.8945 31.289143 15.230469 28 15.25C 24.710855 15.230469 21.453526 15.8945 18.4345 17.199999C 17.86178 17.462074 17.496012 18.035679 17.5 18.665501L 17.5 26.635C 17.52692 31.951889 20.817665 36.705986 25.7845 38.6035L 26.905001 39.0355C 27.607365 39.319565 28.392633 39.319565 29.094999 39.0355L 30.2155 38.6035C 35.182335 36.705986 38.47308 31.951889 38.5 26.635L 38.5 18.665501C 38.50399 18.035679 38.138222 17.462074 37.565502 17.200001Z"></path></g></g></g></g></g></svg>