<?xml version="1.0" encoding="utf-8" standalone="yes"?>
<!DOCTYPE svg PUBLIC "-//W3C//DTD SVG 1.1//EN" "http://www.w3.org/Graphics/SVG/1.1/DTD/svg11.dtd">
<svg width="58" height="58" viewBox="0 0 58 58" style="fill:none;stroke:none;fill-rule:evenodd;clip-rule:evenodd;stroke-linecap:round;stroke-linejoin:round;stroke-miterlimit:1.5;" version="1.1" xmlns="http://www.w3.org/2000/svg" xmlns:xlink="http://www.w3.org/1999/xlink"><g id="items" style="isolation: isolate"><g id="blend" style="mix-blend-mode:normal"><g id="g-root-ribb_1hf3jl513g7090-fill" data-item-order="1000000000" transform="translate(3, 3)"></g><g id="g-root-ribb_1hf3jl513g7090-stroke" data-item-order="1000000000" transform="translate(3, 3)"><g id="ribb_1hf3jl513g7090-stroke" fill="none" stroke-linecap="round" stroke-linejoin="round" stroke-miterlimit="4" stroke="#4682e3" stroke-width="2"><g><path d="M 15.530666 28.712002L 10.746667 36.908001C 10.562667 37.225334 10.709333 37.434669 11.070666 37.373337L 15.548 36.61467L 17.1 40.881332C 17.225334 41.225334 17.481333 41.250668 17.669333 40.934669L 21.756001 34.070667M 36.469334 28.712002L 41.253334 36.908001C 41.437332 37.225334 41.290668 37.434669 40.929337 37.373337L 36.452003 36.61467L 34.900002 40.881332C 34.774666 41.225334 34.518669 41.250668 34.330666 40.934669L 30.243999 34.070667M 14 22.842667C 14 29.470085 19.372583 34.842667 26 34.842667C 32.627419 34.842667 38 29.470085 38 22.842667C 38 16.21525 32.627419 10.842667 26 10.842667C 19.372583 10.842667 14 16.21525 14 22.842667ZM 31.253334 19.549334L 24.960001 25.842667C 24.569426 26.233494 23.935909 26.233494 23.545334 25.842667L 21.252001 23.549334"></path></g></g></g></g></g></svg>