<?xml version="1.0" encoding="utf-8" standalone="yes"?>
<!DOCTYPE svg PUBLIC "-//W3C//DTD SVG 1.1//EN" "http://www.w3.org/Graphics/SVG/1.1/DTD/svg11.dtd">
<svg width="58" height="58" viewBox="0 0 58 58" style="fill:none;stroke:none;fill-rule:evenodd;clip-rule:evenodd;stroke-linecap:round;stroke-linejoin:round;stroke-miterlimit:1.5;" version="1.1" xmlns="http://www.w3.org/2000/svg" xmlns:xlink="http://www.w3.org/1999/xlink"><g id="items" style="isolation: isolate"><g id="blend" style="mix-blend-mode:normal"><g id="g-root-assi_18koyjt13fq4g4-fill" data-item-order="1000000000" transform="translate(3, 3)"></g><g id="g-root-assi_18koyjt13fq4g4-stroke" data-item-order="1000000000" transform="translate(3, 3)"><g id="assi_18koyjt13fq4g4-stroke" fill="none" stroke-linecap="round" stroke-linejoin="round" stroke-miterlimit="4" stroke="#4682e3" stroke-width="2"><g><path d="M 22.421333 33.597336C 22.420925 35.574066 24.02327 37.176743 26 37.176743C 27.976732 37.176743 29.579075 35.574066 29.578667 33.597336C 29.579075 31.620602 27.976732 30.017927 26 30.017927C 24.02327 30.017927 22.420925 31.620602 22.421333 33.597336M 31.113335 41.26667C 30.105764 39.37878 28.139935 38.199669 26 38.199669C 23.860067 38.199669 21.894238 39.37878 20.886667 41.26667M 32.808002 33.597336C 32.807594 35.574066 34.409935 37.176743 36.386665 37.176743C 38.3634 37.176743 39.965744 35.574066 39.965332 33.597336C 39.965744 31.620602 38.3634 30.017927 36.386665 30.017927C 34.409935 30.017927 32.807594 31.620602 32.807999 33.597336M 41.333336 40.758667C 40.134823 39.06662 38.154839 38.104263 36.083885 38.207199C 34.012928 38.310143 32.138142 39.464108 31.113335 41.266666M 12.034667 33.597336C 12.034258 35.574066 13.636601 37.176743 15.613334 37.176743C 17.590065 37.176743 19.192408 35.574066 19.191999 33.597336C 19.192408 31.620602 17.590065 30.017927 15.613334 30.017927C 13.636601 30.017927 12.034258 31.620602 12.034667 33.597336M 10.666667 40.758667C 11.865179 39.06662 13.84516 38.104263 15.916117 38.207199C 17.987072 38.310143 19.861858 39.464108 20.886667 41.266666M 40.496002 19.817333L 33.562668 26.750668L 30.153334 27.432001L 30.834667 24.024L 37.768002 17.090666C 38.518806 16.340082 39.735867 16.340082 40.486668 17.090666L 40.494667 17.098667C 40.855949 17.458696 41.059128 17.94768 41.05938 18.457724C 41.059631 18.967768 40.856926 19.456949 40.496002 19.817333ZM 34.942669 13.730667L 31.515999 10.733334L 15.154667 10.733334L 15.154667 26.072001M 19.245333 17.890667L 20.608 19.254667L 23.334667 16.528M 19.245333 24.708L 20.608 26.072001L 23.334667 23.344002M 26.743999 18.572001L 28.789333 18.572001M 31.515999 23.344002L 34.242668 26.072001M 12.845333 31.333334C 14.517461 32.996834 16.844383 33.827873 19.191999 33.600002M 23.232 31.333334C 24.904228 32.996666 27.231073 33.827682 29.578667 33.599998M 33.618668 31.333334C 35.291309 32.996887 37.618652 33.827904 39.966667 33.600002"></path></g></g></g></g></g></svg>