<?xml version="1.0" encoding="utf-8" standalone="yes"?>
<!DOCTYPE svg PUBLIC "-//W3C//DTD SVG 1.1//EN" "http://www.w3.org/Graphics/SVG/1.1/DTD/svg11.dtd">
<svg width="62" height="62" viewBox="0 0 62 62" style="fill:none;stroke:none;fill-rule:evenodd;clip-rule:evenodd;stroke-linecap:round;stroke-linejoin:round;stroke-miterlimit:1.5;" version="1.1" xmlns="http://www.w3.org/2000/svg" xmlns:xlink="http://www.w3.org/1999/xlink"><g id="items" style="isolation: isolate"><g id="blend" style="mix-blend-mode:normal"><g id="g-root-bott_1cu9g5zxw9iq7-fill" data-item-order="1000000000" transform="translate(3, 3)"></g><g id="g-root-bott_1cu9g5zxw9iq7-stroke" data-item-order="1000000000" transform="translate(3, 3)"><g id="bott_1cu9g5zxw9iq7-stroke" fill="none" stroke-linecap="round" stroke-linejoin="round" stroke-miterlimit="4" stroke="#93c131" stroke-width="2"><g><path d="M 21.25 13.75L 21.25 23.668001C 21.237736 24.27667 20.85557 24.816339 20.2855 25.029999C 15.631622 26.927052 12.974539 31.855831 13.947683 36.786388C 14.920829 41.716942 19.251303 45.266586 24.276957 45.253185C 29.302612 45.23978 33.614094 41.667091 34.560928 36.731419C 35.507763 31.795744 32.824429 26.881205 28.1605 25.009001C 27.598278 24.764904 27.238781 24.20582 27.249998 23.592999L 27.25 13.75M 33.849998 43C 34.705879 44.481339 36.327713 45.34922 38.035 45.239502C 40.460926 45.004852 42.297367 42.942284 42.249996 40.505497L 42.25 16.75C 42.25 15.921573 41.578426 15.25 40.75 15.25L 34.75 15.25C 33.921574 15.25 33.25 15.921573 33.25 16.75L 33.25 25M 14.1745 37.75L 34.313499 37.75M 28.75 12.25C 28.75 11.421573 28.078428 10.75 27.25 10.75L 21.25 10.75C 20.421574 10.75 19.75 11.421573 19.75 12.25C 19.75 13.078427 20.421574 13.75 21.25 13.75L 27.25 13.75C 28.078428 13.75 28.75 13.078427 28.75 12.25ZM 42.25 22.75L 37.75 22.75M 42.25 27.25L 40 27.25M 42.25 31.75L 37.75 31.75M 42.25 36.25L 40 36.25"></path></g></g></g></g></g></svg>