<?xml version="1.0" encoding="utf-8" standalone="yes"?>
<!DOCTYPE svg PUBLIC "-//W3C//DTD SVG 1.1//EN" "http://www.w3.org/Graphics/SVG/1.1/DTD/svg11.dtd">
<svg width="58" height="58" viewBox="0 0 58 58" style="fill:none;stroke:none;fill-rule:evenodd;clip-rule:evenodd;stroke-linecap:round;stroke-linejoin:round;stroke-miterlimit:1.5;" version="1.1" xmlns="http://www.w3.org/2000/svg" xmlns:xlink="http://www.w3.org/1999/xlink"><g id="items" style="isolation: isolate"><g id="blend" style="mix-blend-mode:normal"><g id="g-root-appl_1qbzeuh12vtq81-fill" data-item-order="1000000000" transform="translate(3, 3)"></g><g id="g-root-appl_1qbzeuh12vtq81-stroke" data-item-order="1000000000" transform="translate(3, 3)"><g id="appl_1qbzeuh12vtq81-stroke" fill="none" stroke-linecap="round" stroke-linejoin="round" stroke-miterlimit="4" stroke="#4682e3" stroke-width="2"><g><path d="M 40.857143 29.428572L 40.857143 34C 40.857143 34.631184 40.34547 35.142857 39.714287 35.142857L 12.285714 35.142857C 11.654531 35.142857 11.142858 34.631184 11.142858 34L 11.142858 29.428572M 11.142858 20.285715L 11.142858 15.714286C 11.142858 15.083103 11.654531 14.571428 12.285714 14.571428L 39.714287 14.571428C 40.34547 14.571428 40.857143 15.083103 40.857143 15.714286L 40.857143 20.285715M 23.714287 35.142857L 21.428572 40.857143M 28.285715 35.142857L 30.57143 40.857143M 19.142857 40.857143L 32.857143 40.857143M 22.571428 20.285715L 29.428572 20.285715L 29.428572 29.428572L 22.571428 29.428572ZM 16.857143 21.428572L 13.428572 24.857143L 16.857143 28.285715M 35.142857 21.428572L 38.57143 24.857143L 35.142857 28.285715"></path></g></g></g></g></g></svg>